<?xml version="1.0" encoding="UTF-8"?>
<svg width="270px" height="180px" viewBox="0 0 270 180" version="1.1" xmlns="http://www.w3.org/2000/svg" xmlns:xlink="http://www.w3.org/1999/xlink">
    <title>Group 42</title>
    <g id="Page-1" stroke="none" stroke-width="1" fill="none" fill-rule="evenodd">
        <g id="Group-42">
            <rect id="Rectangle-Copy-37-Copy-3" fill="#D8D8D8" fill-rule="nonzero" x="-2.7000624e-13" y="0" width="270" height="180"></rect>
            <path d="M176.636364,46 C180.150903,46 183,48.8653776 183,52.4 L183,119.6 C183,123.134622 180.150903,126 176.636364,126 L84.3636364,126 C80.849097,126 78,123.134622 78,119.6 L78,52.4 C78,48.8653776 80.849097,46 84.3636364,46 L176.636364,46 Z M175.870968,50 L85.1290323,50 C83.4532826,50 82.0852044,51.3178884 82.0038294,52.9741945 L82,53.1304348 L82,118.869565 C82,120.546066 83.3172979,121.914757 84.972862,121.996169 L85.1290323,122 L175.870968,122 C177.546717,122 178.914796,120.682112 178.996171,119.025806 L179,118.869565 L179,53.1304348 C179,51.453934 177.682702,50.0852426 176.027138,50.0038311 L175.870968,50 Z" id="Shape-Copy-5" fill="#979797" fill-rule="nonzero"></path>
            <polyline id="Path-2-Copy-2" stroke="#979797" stroke-width="5" points="79.5377864 113.511106 111.393443 86.989303 129.537429 101.971877 158.818807 77.8032787 181.663234 97.7034153"></polyline>
            <circle id="Oval-Copy-23" stroke="#979797" stroke-width="5" cx="110.20082" cy="67.8647541" r="7.95081967"></circle>
            <circle id="Oval-Copy-21" fill="#979797" fill-rule="nonzero" cx="180" cy="127" r="18.5"></circle>
            <path d="M187.474452,131.939798 C188.175182,132.639623 188.175182,133.774385 187.474452,134.474919 C187.124077,134.825236 186.666149,135 186.206643,135 C185.748715,135 185.289208,134.82524 184.940412,134.474919 L180.000537,129.535857 L175.061268,134.474919 C174.710103,134.825236 174.251386,135 173.793459,135 C173.333952,135 172.875214,134.82524 172.525649,134.474919 C171.824919,133.774304 171.824919,132.639542 172.525649,131.939798 L175.671838,128.792507 L177.464816,126.999036 L172.525548,122.060581 C171.824817,121.359967 171.824817,120.225995 172.525548,119.525461 C173.225488,118.824846 174.360437,118.824846 175.061086,119.525461 L178.344955,122.809599 L180.000314,124.463895 L181.930911,122.534426 L184.94023,119.525603 C185.640171,118.824988 186.775119,118.824988 187.474351,119.525603 C188.175081,120.226217 188.175081,121.360189 187.474351,122.060723 L182.535083,126.999177 L187.474452,131.939798 Z" id="Shape-path-Copy-3-Copy-2" fill="#D8D8D8" fill-rule="nonzero"></path>
        </g>
    </g>
</svg>